Coordinates
version=1
nRows=9
nColumns=38
inDegrees=yes

Units are S.I. units (second, meters, Newtons, ...)
If the header above contains a line with 'inDegrees', this indicates whether rotational values are in degrees (yes) or radians (no).

endheader
time	pelvis_tilt	pelvis_list	pelvis_rotation	pelvis_tx	pelvis_ty	pelvis_tz	hip_flexion_r	hip_adduction_r	hip_rotation_r	knee_angle_r	ankle_angle_r	subtalar_angle_r	mtp_angle_r	hip_flexion_l	hip_adduction_l	hip_rotation_l	knee_angle_l	ankle_angle_l	subtalar_angle_l	mtp_angle_l	lumbar_extension	lumbar_bending	lumbar_rotation	arm_flex_r	arm_add_r	arm_rot_r	elbow_flex_r	pro_sup_r	wrist_flex_r	wrist_dev_r	arm_flex_l	arm_add_l	arm_rot_l	elbow_flex_l	pro_sup_l	wrist_flex_l	wrist_dev_l
      0.43600000	     -3.13444539	     -1.24136782	     -8.16283685	     -1.85626010	      0.95864565	      0.19835304	    -11.26126021	      1.72938998	     -6.11328324	    -31.16024671	     21.66687132	     17.15563621	     23.65550591	     64.55263677	     -7.50451124	     -4.81172635	   -131.15481331	     -0.15171028	     -7.50372954	     20.46119194	    -15.45760669	     -1.17446052	     15.46950886	     38.12334001	    -34.19431543	     12.55403478	     90.96163845	    139.59565897	      0.00000000	      0.00000000	    -50.60510698	    -32.76039730	     17.85173046	     36.85873080	    153.33761203	      0.00000000	      0.00000000
      0.44000000	     -4.56993513	      0.51439533	     -7.33469073	     -1.81554695	      0.95631359	      0.19793902	    -13.26364366	     -0.14448258	     -7.18479164	    -28.08494421	     17.07844768	     18.17033334	     27.00265505	     68.41573336	     -5.34990481	     -5.60493783	   -128.36951736	     -0.96464418	     -9.25547827	     18.88578308	    -12.94079154	     -2.85808278	     14.92537039	     39.16978139	    -33.52400598	     10.66169468	     92.92361201	    140.56522767	      0.00000000	      0.00000000	    -55.35822572	    -33.29678294	     14.40982041	     39.06697916	    152.61316477	      0.00000000	      0.00000000
      0.44400000	     -5.93504314	      2.21762813	     -6.15683779	     -1.77454585	      0.95437221	      0.19699046	    -15.41305577	     -1.81200196	     -8.73061300	    -24.77592223	     11.56133115	     19.07732301	     31.09971988	     71.89381517	     -3.10219007	     -6.32151564	   -125.32601144	     -1.67641372	    -10.40905289	     16.60309936	    -10.58405359	     -4.54560695	     14.08465917	     40.21348264	    -32.93556596	      8.94758677	     94.96772451	    141.80005454	      0.00000000	      0.00000000	    -59.87933333	    -34.67908046	     14.23965752	     41.19979712	    152.16971699	      0.00000000	      0.00000000
      0.44800000	     -7.32268028	      3.70972457	     -5.19885890	     -1.73398990	      0.95255280	      0.19697384	    -17.51108724	     -3.03426643	     -9.53025714	    -21.30063450	      5.37131976	     18.83782617	     33.69493109	     75.11375078	     -1.46300829	     -6.95242034	   -122.10623223	     -0.01918009	    -12.06494163	     16.83563045	     -8.24132762	     -6.17597268	     13.57867202	     41.42367833	    -32.35095589	      7.59270968	     96.70489230	    142.75596059	      0.00000000	      0.00000000	    -64.79823626	    -34.48811163	      9.61096854	     43.25845058	    151.20079258	      0.00000000	      0.00000000
      0.45200000	     -8.67143912	      5.17133425	     -3.93948227	     -1.69321528	      0.95086737	      0.19603944	    -19.73345246	     -4.10271404	    -10.93034592	    -17.53335484	     -1.94505130	     18.36081573	     36.46589084	     78.11005429	      0.38868996	     -7.71835050	   -118.66882375	     -0.01674656	    -13.28338895	     17.18394596	     -6.06216851	     -7.77705573	     12.71530305	     42.71148364	    -31.80775633	      6.42400983	     98.56591724	    144.06768435	      0.00000000	      0.00000000	    -69.50595196	    -34.20270031	      6.06723367	     45.14099599	    149.96595834	      0.00000000	      0.00000000
      0.45600000	    -10.08539208	      6.44582536	     -2.93950629	     -1.65299390	      0.94962704	      0.19553249	    -21.65443989	     -4.90548449	    -11.53971759	    -13.94475278	     -9.77364768	     16.31773756	     36.97113920	     80.83811189	      1.75860423	     -8.42175274	   -114.94568060	      0.15716024	    -14.25081660	     17.06225981	     -3.91902021	     -9.26486243	     12.42793251	     43.83410003	    -31.67271604	      5.31152668	    100.70249645	    144.71539127	      0.00000000	      0.00000000	    -73.58823463	    -34.32784409	      3.77795160	     46.66454999	    149.33759353	      0.00000000	      0.00000000
      0.46000000	    -11.12674184	      7.45099918	     -1.86382500	     -1.61295324	      0.94882090	      0.19470444	    -23.90369162	     -5.42510446	    -12.36629163	    -10.43135446	    -18.02307458	     14.51525549	     37.13630657	     82.94159819	      3.04359417	     -8.97637931	   -111.06696022	      0.21693174	    -15.29048994	     16.72704265	     -2.35329554	    -10.48557289	     11.78639909	     45.44333586	    -31.41230429	      4.50641259	    102.39902526	    145.23986644	      0.00000000	      0.00000000	    -77.46537668	    -33.77203429	      0.91814114	     48.08822837	    148.60090093	      0.00000000	      0.00000000
      0.46400000	    -12.19440146	      8.36643219	     -0.97500202	     -1.57310609	      0.94794455	      0.19357287	    -25.80856136	     -5.98819957	    -13.17966446	     -7.50355665	    -25.87892026	     12.83593010	     36.28706993	     84.79946207	      4.10363971	     -9.56475468	   -107.01247379	      0.30424112	    -16.16850541	     16.27024146	     -0.80186564	    -11.57099883	     11.35948678	     46.95099289	    -31.26812739	      3.98715050	    104.28358892	    145.83574703	      0.00000000	      0.00000000	    -80.84243392	    -32.93550437	     -1.77763300	     49.09096290	    147.85093480	      0.00000000	      0.00000000
      0.46800000	    -12.39453885	      9.45598703	     -0.05527019	     -1.53373105	      0.94811846	      0.19205439	    -28.24214917	     -6.75112209	    -14.87017083	     -5.59636410	    -32.18421916	     12.19111585	     33.16589902	     85.51486891	      5.36025565	    -10.34247496	   -102.68991202	      0.58931950	    -16.89339248	     15.16585784	     -0.33718051	    -12.83395549	     10.78968285	     48.76147858	    -31.14516418	      3.43663529	    105.65281734	    147.46844833	      0.00000000	      0.00000000	    -83.68446561	    -30.73462278	     -7.16695303	     50.26783067	    145.83689217	      0.00000000	      0.00000000
